# xmcd
#
# Track frame offsets:
#	150
#	13745
#	30904
#	48857
#	64023
#	79301
#	93731
#	109841
#	126065
#	144256
#	160152
#	171066
#
# Disc length: 2460 seconds
#
# Revision: 0
# Processed by: cddbd v1.5.2PL0 Copyright (c) Steve Scherf et al.
# Submitted via: EasyCDDAExtractor 10.0.2.1
#
DISCID=92099a0c
DTITLE=Jørgen Olsen
DYEAR=2007
DGENRE=Pop
TTITLE0=Vi elsker bare danske piger
TTITLE1=Lyse sommer
TTITLE2=Mit livs store kærlighed
TTITLE3=Hvorfra, hvorhen
TTITLE4=Senorita
TTITLE5=Kom og lad mig tænde din flamme
TTITLE6=Jeg blev født i danmark
TTITLE7=Natten er vor egen
TTITLE8=Det kan jeg nå endgå
TTITLE9=En rigtig stor dreng
TTITLE10=Fra København til Napoli
TTITLE11=All European girls
EXTD=
EXTT0=
EXTT1=
EXTT2=
EXTT3=
EXTT4=
EXTT5=
EXTT6=
EXTT7=
EXTT8=
EXTT9=
EXTT10=
EXTT11=
PLAYORDER=
